<?xml version="1.0" encoding="UTF-8" standalone="no"?>
<!-- Created with Inkscape (http://www.inkscape.org/) -->

<svg
   xmlns:dc="http://purl.org/dc/elements/1.1/"
   xmlns:cc="http://creativecommons.org/ns#"
   xmlns:rdf="http://www.w3.org/1999/02/22-rdf-syntax-ns#"
   xmlns:svg="http://www.w3.org/2000/svg"
   xmlns="http://www.w3.org/2000/svg"
   xmlns:sodipodi="http://sodipodi.sourceforge.net/DTD/sodipodi-0.dtd"
   xmlns:inkscape="http://www.inkscape.org/namespaces/inkscape"
   version="1.1"
   id="svg2"
   xml:space="preserve"
   width="50"
   height="50"
   viewBox="0 0 50 50"
   sodipodi:docname="heart.svg"
   inkscape:version="0.92.4 (unknown)"><metadata
     id="metadata8"><rdf:RDF><cc:Work
         rdf:about=""><dc:format>image/svg+xml</dc:format><dc:type
           rdf:resource="http://purl.org/dc/dcmitype/StillImage" /><dc:title /></cc:Work></rdf:RDF></metadata><defs
     id="defs6" /><sodipodi:namedview
     pagecolor="#ffffff"
     bordercolor="#666666"
     borderopacity="1"
     objecttolerance="10"
     gridtolerance="10"
     guidetolerance="10"
     inkscape:pageopacity="0"
     inkscape:pageshadow="2"
     inkscape:window-width="1360"
     inkscape:window-height="714"
     id="namedview4"
     showgrid="false"
     inkscape:zoom="8"
     inkscape:cx="121.29068"
     inkscape:cy="22.493095"
     inkscape:window-x="0"
     inkscape:window-y="28"
     inkscape:window-maximized="1"
     inkscape:current-layer="g12" /><g
     id="g10"
     inkscape:groupmode="layer"
     inkscape:label="ink_ext_XXXXXX"
     transform="matrix(1.3333333,0,0,-1.3333333,0,50)"><g
       id="g12"
       transform="scale(0.1)"><path
         style="fill:#000000;stroke:none;stroke-width:7.5px;stroke-linecap:butt;stroke-linejoin:miter;stroke-opacity:1;fill-opacity:1"
         d="m 92.484775,179.39817 c 0,0 8.542775,55.71372 50.885195,56.45657 42.34242,0.74288 90.99907,19.68551 108.08461,-11.51417 17.08554,-31.19968 37.5139,-53.48517 38.62818,-69.82786 1.11427,-16.34269 5.9428,-41.59958 1.85713,-58.313687 -4.08568,-16.714118 -7.4285,-30.456834 -15.97127,-37.142484 -8.54277,-6.685643 -37.88533,-24.142606 -66.48504,-19.685513 -28.59971,4.4571 -80.9706,28.971136 -90.99907,38.999604 -10.02847,10.028467 -30.085413,43.4567 -32.313963,55.34229 -2.228542,11.8856 6.314228,45.68525 6.314228,45.68525 z"
         id="path10"
         inkscape:connector-curvature="0" /><path
         style="fill:#fd004d;fill-opacity:1;fill-rule:nonzero;stroke:none;stroke-width:0.00482865"
         d="m 26.03125,3.1210938 c -0.509698,-0.00347 -1.118415,0.1024024 -1.818359,0.4082031 l -0.03516,0.015625 -0.01172,0.039063 c -0.0029,0.010747 -0.298012,1.0770547 -0.324219,2.5996094 -0.01611,0.9421586 -0.423934,1.3079065 -0.787662,1.3360065 -0.162901,0.050089 -0.566138,-0.042766 -0.624447,-0.3379597 -1.363883,-2.7760399 -2.199463,-3.0453623 -2.28711,-3.140625 l -0.02539,-0.027344 -0.03906,0.00195 c -0.02106,0.00151 -2.098988,0.1185725 -2.070313,1.8085938 0.0015,0.027904 0.03753,0.6837514 0.47461,0.9804687 0.405892,0.2754907 1.250424,1.2678387 1.484375,2.7324219 -0.235217,0.5316176 -0.660268,1.2986096 -0.916016,1.7480466 l 0.166016,-1.242187 C 18.862172,9.5503457 18.594219,9.4280937 18.242188,9.1210938 16.743824,8.6502989 15.864488,8.49959 14.654297,8.6933594 14.51988,9.735965 14.620687,9.8426817 14.425781,10.773438 c -0.341249,1.629606 -0.966152,5.54038 -0.560547,6.970703 0.181895,0.640989 -0.312858,1.853688 -1.43164,3.505859 -1.582068,2.336497 -2.407264,4.995456 -2.388672,7.689453 0.05593,8.102792 6.585163,12.650352 12.058594,15.041016 0.03367,0.01241 3.418428,1.240328 7.171875,1.380859 5.616175,0.195737 8.516104,-2.214244 9.761718,-5.230469 3.470051,-8.962134 -1.884664,-19.374536 -4.832031,-21.648437 -0.05136,-0.05086 -0.188997,-0.223021 -0.148437,-0.337891 0.0314,-0.08872 0.178132,-0.14962 0.412109,-0.173828 0.865745,-0.0893 2.630678,0.06871 2.648438,0.07031 l 0.06445,0.0059 0.02148,-0.05859 c 0.04021,-0.106965 0.971447,-2.629153 -0.291016,-3.583984 l -0.0332,-0.02539 -0.03906,0.0098 c -0.01423,0.0038 -1.438345,0.385524 -2.646485,0.394531 -1.040765,0.0079 -2.251976,0.398303 -2.638671,0.533203 0.03643,-0.694329 0.0032,-3.969109 -3.445313,-7.2734372 -0.03556,-0.027267 -0.89075,-0.7072814 -0.359375,-2.375 0.14226,-0.594771 0.387733,-1.1575369 0.501953,-1.5996094 C 28.152709,3.9533074 27.825539,3.6107326 27.261719,3.3691406 26.952783,3.2367246 26.540948,3.1245686 26.03125,3.1210938 Z M 24.583984,19.326172 c 10.332704,-0.300925 16.352848,12.694798 12.371094,20.765625 -3.353518,6.797437 -18.919445,3.570899 -23.46289,-6.230469 -2.006285,-4.701886 1.109975,-10.971804 4.943359,-12.882812 2.173149,-1.083351 4.234974,-1.596617 6.148437,-1.652344 z"
         transform="matrix(7.5000002,0,0,-7.5000002,0,375.00001)"
         id="path20"
         inkscape:connector-curvature="0"
         sodipodi:nodetypes="sccccccccccccccccscccccccccccccccccccccssscss" /><path
         style="fill:#ffffff;fill-opacity:1;stroke-width:0.28612104"
         d="m 215.46073,175.61571 c -2.73363,0.019 -3.82503,-0.28053 -6.45494,-0.99284 l 1.66759,-29.53136 8.7772,1.25478 16.19793,6.38324 6.15093,-1.32612 c -0.30167,10.94234 -6.83755,18.53909 -16.42449,22.3307 -3.17513,1.25229 -6.54474,1.85802 -9.91422,1.8816 z m -11.56783,-2.22705 c -6.48396,-2.62415 -11.96972,-7.45633 -14.67989,-13.90644 -1.73324,3.2329 -3.3498,5.57905 -6.2553,7.72319 l -21.36855,-20.13287 -3.4601,-6.26395 28.27858,-0.90301 21.87042,-7.7323 -2.63396,7.13791 z m -39.64169,-0.1653 c -4.2653,-0.0443 -8.52823,-0.99953 -12.38264,-2.95957 -13.82738,-7.0409 -19.81409,-23.63933 -7.7476,-42.31466 0.18098,-0.28074 0.36865,-0.5573 0.5549,-0.83492 l 13.00775,22.96132 21.45142,19.41924 c -4.47464,2.48253 -9.68085,3.78301 -14.88383,3.72859 z m 77.42586,-26.17235 -5.13252,0.94008 -16.64604,-6.53828 -9.09628,-1.26697 5.70206,-15.52951 -2.89122,-19.24955 c 12.66625,10.92105 18.33986,17.05503 23.4621,26.93134 2.70585,5.20669 4.17248,10.15047 4.6019,14.71289 z m -85.5399,-11.26277 -7.79927,-12.4633 c 4.64965,-6.03097 9.23102,-10.66418 17.31654,-16.75773 l 15.30596,11.81243 4.80884,16.24868 z m 34.59983,-2.93349 -5.26762,-17.4624 -14.93992,-12.60109 c 6.69997,-4.905859 12.60844,-8.617696 22.07112,-15.068407 5.56506,4.618297 10.5525,8.744607 15.04985,12.556927 l 3.6786,23.49065 -1.21637,2.21763 z"
         id="path4522"
         inkscape:connector-curvature="0"
         sodipodi:nodetypes="sccccccscccccccccscccccscccccccccccccccccccccc" /></g></g></svg>